<?xml version="1.0" encoding="UTF-8"?>
<svg xmlns="http://www.w3.org/2000/svg" id="Layer_1" data-name="Layer 1" viewBox="0 0 24 24" width="512" height="512"><path d="M24,12c0,6.617-5.383,12-12,12-4.253,0-7.987-2.231-10.119-5.577,.204,.029,.407,.063,.619,.063,.581,0,1.132-.119,1.643-.321,1.832,2.33,4.67,3.835,7.857,3.835,5.514,0,10-4.486,10-10S17.514,2,12,2c-2.961,0-5.618,1.301-7.451,3.353l-3.453,2.707c-.12,.118-.352,.356-.635,.679C1.887,3.704,6.514,0,12,0c6.617,0,12,5.383,12,12Zm-15.5-1c-.828,0-1.5,.672-1.5,1.5s.672,1.5,1.5,1.5,1.5-.672,1.5-1.5-.672-1.5-1.5-1.5Zm5.5,1.5c0,.828,.672,1.5,1.5,1.5s1.5-.672,1.5-1.5-.672-1.5-1.5-1.5-1.5,.672-1.5,1.5Zm-9,1.486c0-1.987-2.5-4.5-2.5-4.5,0,0-2.5,2.462-2.5,4.5,0,1.381,1.119,2.5,2.5,2.5s2.5-1.119,2.5-2.5Zm-.371-5.414l.741,1.857c1.582-.631,2.952-1.765,3.962-3.279l-1.664-1.109c-.773,1.159-1.852,2.058-3.039,2.531Zm14.001,1.857l.741-1.857c-1.187-.474-2.266-1.372-3.039-2.531l-1.664,1.109c1.01,1.515,2.38,2.648,3.962,3.279Zm-10.227,6.77l1.19,1.606c.011-.008,1.118-.805,2.407-.805s2.396,.797,2.403,.802l1.194-1.604c-.066-.049-1.632-1.198-3.597-1.198s-3.531,1.149-3.597,1.198Z"/></svg>
